<svg width="50" height="50" viewBox="0 0 50 50" fill="none" xmlns="http://www.w3.org/2000/svg">
<path d="M24.913 49.8261C38.6721 49.8261 49.8261 38.6721 49.8261 24.913C49.8261 11.1539 38.6721 0 24.913 0C11.1539 0 0 11.1539 0 24.913C0 38.6721 11.1539 49.8261 24.913 49.8261Z" fill="#C4C4C4"/>
<path d="M11.3998 24.3733L35.4202 15.1119C36.535 14.7091 37.5087 15.3839 37.1475 17.0696L37.1495 17.0676L33.0596 36.3357C32.7565 37.7018 31.9448 38.034 30.8092 37.3904L24.5809 32.8001L21.5768 35.6942C21.2446 36.0264 20.9644 36.3067 20.3208 36.3067L20.763 29.9684L32.306 19.5402C32.8084 19.098 32.1939 18.8488 31.5316 19.289L17.2669 28.2701L11.1175 26.3518C9.78257 25.9283 9.7535 25.0169 11.3998 24.3733Z" fill="#20283B"/>
</svg>
