<svg width="50" height="49" viewBox="0 0 50 49" fill="none" xmlns="http://www.w3.org/2000/svg">
<path d="M25 0C11.195 0 0 10.9711 0 24.5C0 38.0289 11.195 49 25 49C38.805 49 50 38.0289 50 24.5C50 10.9711 38.805 0 25 0ZM36.4147 19.1025C36.4258 19.3436 36.4311 19.5859 36.4311 19.8292C36.4311 27.2601 30.6595 35.8289 20.1046 35.8292H20.105H20.1046C16.864 35.8292 13.8485 34.8984 11.3091 33.3032C11.758 33.3552 12.215 33.381 12.6778 33.381C15.3664 33.381 17.8406 32.4822 19.8048 30.9738C17.2928 30.9282 15.1749 29.3024 14.444 27.0679C14.7938 27.1337 15.1535 27.1696 15.5224 27.1696C16.0461 27.1696 16.5535 27.1004 17.0357 26.9715C14.41 26.4563 12.4321 24.1822 12.4321 21.4592C12.4321 21.4338 12.4321 21.411 12.4329 21.3874C13.2061 21.8087 14.0903 22.0622 15.0318 22.0906C13.4911 21.0831 12.4783 19.3608 12.4783 17.4097C12.4783 16.3794 12.7625 15.4142 13.2553 14.5831C16.0851 17.9858 20.314 20.2236 25.0832 20.4588C24.9847 20.0468 24.934 19.6176 24.934 19.1765C24.934 16.0721 27.504 13.5536 30.6728 13.5536C32.3235 13.5536 33.8142 14.2373 34.8614 15.3304C36.1687 15.0777 37.3962 14.6097 38.5052 13.9656C38.076 15.2781 37.1666 16.3794 35.9818 17.0759C37.1426 16.9398 38.2488 16.6381 39.2769 16.1903C38.509 17.3182 37.5351 18.3088 36.4147 19.1025Z" fill="#C4C4C4"/>
</svg>
