<svg width="50" height="50" viewBox="0 0 50 50" fill="none" xmlns="http://www.w3.org/2000/svg">
<circle cx="24.913" cy="25.087" r="24.913" fill="#C4C4C4"/>
<path d="M24.9171 7.64783H24.9084C15.2929 7.64783 7.47363 15.4693 7.47363 25.087C7.47363 28.9018 8.70309 32.4375 10.7936 35.3085L8.62026 41.7871L15.3234 39.6443C18.081 41.471 21.3704 42.5261 24.9171 42.5261C34.5326 42.5261 42.3519 34.7024 42.3519 25.087C42.3519 15.4715 34.5326 7.64783 24.9171 7.64783Z" fill="#20283B"/>
<path d="M35.2727 32.5405C34.8491 33.7424 33.168 34.7392 31.8271 35.0303C30.9098 35.2266 29.7115 35.3832 25.6777 33.7027C20.5181 31.5548 17.1954 26.2863 16.9365 25.9445C16.6885 25.6027 14.8516 23.1548 14.8516 20.6232C14.8516 18.0915 16.131 16.8587 16.6468 16.3295C17.0703 15.895 17.7704 15.6965 18.442 15.6965C18.6593 15.6965 18.8546 15.7076 19.0302 15.7164C19.5459 15.7384 19.8049 15.7693 20.145 16.5875C20.5686 17.6129 21.6001 20.1446 21.723 20.4048C21.8481 20.6651 21.9732 21.0179 21.7976 21.3597C21.633 21.7126 21.4882 21.8691 21.2292 22.1691C20.9702 22.469 20.7244 22.6983 20.4655 23.0203C20.2284 23.3004 19.9607 23.6003 20.2592 24.1185C20.5576 24.6258 21.5891 26.3172 23.1078 27.6757C25.0676 29.4289 26.6565 29.989 27.225 30.2272C27.6485 30.4036 28.1533 30.3617 28.4627 30.0309C28.8556 29.6053 29.3406 28.8996 29.8344 28.2049C30.1855 27.7065 30.6288 27.6448 31.0941 27.8212C31.5682 27.9866 34.0766 29.2326 34.5924 29.4906C35.1081 29.7509 35.4483 29.8743 35.5734 30.0927C35.6963 30.311 35.6963 31.3365 35.2727 32.5405Z" fill="#C4C4C4"/>
</svg>
