<svg width="36" height="36" viewBox="0 0 36 36" fill="none" xmlns="http://www.w3.org/2000/svg">
<path d="M30.728 5.27203C27.3282 1.87228 22.808 0 18 0C13.192 0 8.67178 1.87228 5.27203 5.27203C1.87235 8.67178 0 13.192 0 18C0 22.808 1.87235 27.3282 5.27203 30.728C8.67178 34.1277 13.192 36 18 36C22.808 36 27.3282 34.1277 30.728 30.728C34.1276 27.3282 36 22.808 36 18C36 13.192 34.1276 8.67178 30.728 5.27203ZM18 33.8906C9.23787 33.8906 2.10938 26.7621 2.10938 18C2.10938 9.23787 9.23787 2.10938 18 2.10938C26.7621 2.10938 33.8906 9.23787 33.8906 18C33.8906 26.7621 26.7621 33.8906 18 33.8906Z" fill="white"/>
<path d="M19.1297 16.9452H16.8703C15.5831 16.9452 14.5359 15.898 14.5359 14.6109C14.5359 13.3237 15.5832 12.2765 16.8703 12.2765H21.3891C21.9715 12.2765 22.4438 11.8043 22.4438 11.2218C22.4438 10.6394 21.9715 10.1671 21.3891 10.1671H19.0547V7.83276C19.0547 7.25029 18.5825 6.77808 18 6.77808C17.4175 6.77808 16.9453 7.25029 16.9453 7.83276V10.1671H16.8704C14.42 10.1671 12.4266 12.1606 12.4266 14.6109C12.4266 17.0611 14.4201 19.0546 16.8704 19.0546H19.1298C20.4169 19.0546 21.4641 20.1018 21.4641 21.3889C21.4641 22.6761 20.4169 23.7233 19.1298 23.7233H14.611C14.0285 23.7233 13.5563 24.1955 13.5563 24.778C13.5563 25.3605 14.0285 25.8327 14.611 25.8327H16.9453V28.1671C16.9453 28.7496 17.4175 29.2218 18 29.2218C18.5825 29.2218 19.0547 28.7496 19.0547 28.1671V25.8327H19.1297C21.58 25.8327 23.5734 23.8392 23.5734 21.3889C23.5734 18.9387 21.58 16.9452 19.1297 16.9452Z" fill="white"/>
</svg>
